<?xml version="1.0" encoding="UTF-8" standalone="no"?>
<svg
   xmlns:dc="http://purl.org/dc/elements/1.1/"
   xmlns:cc="http://creativecommons.org/ns#"
   xmlns:rdf="http://www.w3.org/1999/02/22-rdf-syntax-ns#"
   xmlns:svg="http://www.w3.org/2000/svg"
   xmlns="http://www.w3.org/2000/svg"
   xmlns:xlink="http://www.w3.org/1999/xlink"
   xmlns:sodipodi="http://sodipodi.sourceforge.net/DTD/sodipodi-0.dtd"
   xmlns:inkscape="http://www.inkscape.org/namespaces/inkscape"
   width="600"
   height="480"
   viewBox="0 0 600 480"
   id="svg2"
   version="1.1"
   inkscape:version="0.48.2 r9819"
   sodipodi:docname="stack_bw_dotted.svg">
  <metadata
     id="metadata164">
    <rdf:RDF>
      <cc:Work
         rdf:about="">
        <dc:format>image/svg+xml</dc:format>
        <dc:type
           rdf:resource="http://purl.org/dc/dcmitype/StillImage" />
      </cc:Work>
    </rdf:RDF>
  </metadata>
  <sodipodi:namedview
     pagecolor="#ffffff"
     bordercolor="#666666"
     borderopacity="1"
     objecttolerance="10"
     gridtolerance="10"
     guidetolerance="10"
     inkscape:pageopacity="0"
     inkscape:pageshadow="2"
     inkscape:window-width="1920"
     inkscape:window-height="1023"
     id="namedview162"
     showgrid="false"
     inkscape:zoom="1.3906433"
     inkscape:cx="322.58888"
     inkscape:cy="258.92674"
     inkscape:window-x="0"
     inkscape:window-y="28"
     inkscape:window-maximized="1"
     inkscape:current-layer="a146" />
  <desc
     id="desc4">Produced by GNUPLOT 4.4 patchlevel 3 </desc>
  <defs
     id="defs6">
    <circle
       id="gpDot"
       r="0.5"
       stroke-width="0.5" />
    <path
       id="gpPt0"
       stroke-width="0.167"
       stroke="currentColor"
       d="M-1,0 h2 M0,-1 v2" />
    <path
       id="gpPt1"
       stroke-width="0.167"
       stroke="currentColor"
       d="M-1,-1 L1,1 M1,-1 L-1,1" />
    <path
       id="gpPt2"
       stroke-width="0.167"
       stroke="currentColor"
       d="M-1,0 L1,0 M0,-1 L0,1 M-1,-1 L1,1 M-1,1 L1,-1" />
    <rect
       id="gpPt3"
       stroke-width="0.167"
       stroke="currentColor"
       x="-1"
       y="-1"
       width="2"
       height="2" />
    <rect
       id="gpPt4"
       stroke-width="0.167"
       stroke="currentColor"
       fill="currentColor"
       x="-1"
       y="-1"
       width="2"
       height="2" />
    <circle
       id="gpPt5"
       stroke-width="0.167"
       stroke="currentColor"
       cx="0"
       cy="0"
       r="1" />
    <use
       xlink:href="#gpPt5"
       id="gpPt6"
       fill="currentColor"
       stroke="none" />
    <path
       id="gpPt7"
       stroke-width="0.167"
       stroke="currentColor"
       d="M0,-1.33 L-1.33,0.67 L1.33,0.67 z" />
    <use
       xlink:href="#gpPt7"
       id="gpPt8"
       fill="currentColor"
       stroke="none" />
    <use
       xlink:href="#gpPt7"
       id="gpPt9"
       stroke="currentColor"
       transform="rotate(180)" />
    <use
       xlink:href="#gpPt9"
       id="gpPt10"
       fill="currentColor"
       stroke="none" />
    <use
       xlink:href="#gpPt3"
       id="gpPt11"
       stroke="currentColor"
       transform="rotate(45)" />
    <use
       xlink:href="#gpPt11"
       id="gpPt12"
       fill="currentColor"
       stroke="none" />
  </defs>
  <g
     style="fill:none; color:white; stroke:currentColor; stroke-width:2.00; stroke-linecap:butt; stroke-linejoin:miter"
     id="g22" />
  <g
     style="fill:none; color:black; stroke:currentColor; stroke-width:2.00; stroke-linecap:butt; stroke-linejoin:miter"
     id="g24">
    <path
       d="M130.4,403.2 L142.4,403.2 M566.3,403.2 L554.3,403.2 "
       id="path26" />
    <g
       transform="translate(119.2,409.2)"
       style="stroke:none; fill:black; font-family:Arial; font-size:16.00pt; text-anchor:end"
       id="g28">
      <text
         id="text30"> 10</text>
    </g>
    <path
       d="M130.4,384.1 L136.4,384.1 M566.3,384.1 L560.3,384.1 M130.4,358.9 L136.4,358.9 M566.3,358.9 L560.3,358.9    M130.4,345.9 L136.4,345.9 M566.3,345.9 L560.3,345.9 M130.4,339.7 L142.4,339.7 M566.3,339.7 L554.3,339.7    "
       id="path32" />
    <g
       transform="translate(119.2,345.7)"
       style="stroke:none; fill:black; font-family:Arial; font-size:16.00pt; text-anchor:end"
       id="g34">
      <text
         id="text36"> 100</text>
    </g>
    <path
       d="M130.4,320.6 L136.4,320.6 M566.3,320.6 L560.3,320.6 M130.4,295.4 L136.4,295.4 M566.3,295.4 L560.3,295.4    M130.4,282.4 L136.4,282.4 M566.3,282.4 L560.3,282.4 M130.4,276.3 L142.4,276.3 M566.3,276.3 L554.3,276.3    "
       id="path38" />
    <g
       transform="translate(119.2,282.3)"
       style="stroke:none; fill:black; font-family:Arial; font-size:16.00pt; text-anchor:end"
       id="g40">
      <text
         id="text42"> 1000</text>
    </g>
    <path
       d="M130.4,257.2 L136.4,257.2 M566.3,257.2 L560.3,257.2 M130.4,232.0 L136.4,232.0 M566.3,232.0 L560.3,232.0    M130.4,219.0 L136.4,219.0 M566.3,219.0 L560.3,219.0 M130.4,212.8 L142.4,212.8 M566.3,212.8 L554.3,212.8    "
       id="path44" />
    <g
       transform="translate(119.2,218.8)"
       style="stroke:none; fill:black; font-family:Arial; font-size:16.00pt; text-anchor:end"
       id="g46">
      <text
         id="text48"> 10000</text>
    </g>
    <path
       d="M130.4,193.7 L136.4,193.7 M566.3,193.7 L560.3,193.7 M130.4,168.5 L136.4,168.5 M566.3,168.5 L560.3,168.5    M130.4,155.5 L136.4,155.5 M566.3,155.5 L560.3,155.5 M130.4,149.4 L142.4,149.4 M566.3,149.4 L554.3,149.4    "
       id="path50" />
    <g
       transform="translate(119.2,155.4)"
       style="stroke:none; fill:black; font-family:Arial; font-size:16.00pt; text-anchor:end"
       id="g52">
      <text
         id="text54"> 100000</text>
    </g>
    <path
       d="M130.4,130.3 L136.4,130.3 M566.3,130.3 L560.3,130.3 M130.4,105.1 L136.4,105.1 M566.3,105.1 L560.3,105.1    M130.4,92.1 L136.4,92.1 M566.3,92.1 L560.3,92.1 M130.4,85.9 L142.4,85.9 M566.3,85.9 L554.3,85.9    "
       id="path56" />
    <g
       transform="translate(119.2,91.9)"
       style="stroke:none; fill:black; font-family:Arial; font-size:16.00pt; text-anchor:end"
       id="g58">
      <text
         id="text60"> 1e+06</text>
    </g>
    <path
       d="M130.4,66.8 L136.4,66.8 M566.3,66.8 L560.3,66.8 M130.4,41.6 L136.4,41.6 M566.3,41.6 L560.3,41.6    M130.4,28.6 L136.4,28.6 M566.3,28.6 L560.3,28.6 M130.4,22.5 L142.4,22.5 M566.3,22.5 L554.3,22.5    "
       id="path62" />
    <g
       transform="translate(119.2,28.5)"
       style="stroke:none; fill:black; font-family:Arial; font-size:16.00pt; text-anchor:end"
       id="g64">
      <text
         id="text66"> 1e+07</text>
    </g>
    <path
       d="M130.4,403.2 L130.4,391.2 M130.4,22.5 L130.4,34.5 "
       id="path68" />
    <g
       transform="translate(130.4,433.2)"
       style="stroke:none; fill:black; font-family:Arial; font-size:16.00pt; text-anchor:middle"
       id="g70">
      <text
         id="text72"> 0</text>
    </g>
    <path
       d="M217.6,403.2 L217.6,391.2 M217.6,22.5 L217.6,34.5 "
       id="path74" />
    <g
       transform="translate(217.6,433.2)"
       style="stroke:none; fill:black; font-family:Arial; font-size:16.00pt; text-anchor:middle"
       id="g76">
      <text
         id="text78"> 2000</text>
    </g>
    <path
       d="M304.8,403.2 L304.8,391.2 M304.8,22.5 L304.8,34.5 "
       id="path80" />
    <g
       transform="translate(304.8,433.2)"
       style="stroke:none; fill:black; font-family:Arial; font-size:16.00pt; text-anchor:middle"
       id="g82">
      <text
         id="text84"> 4000</text>
    </g>
    <path
       d="M391.9,403.2 L391.9,391.2 M391.9,22.5 L391.9,34.5 "
       id="path86" />
    <g
       transform="translate(391.9,433.2)"
       style="stroke:none; fill:black; font-family:Arial; font-size:16.00pt; text-anchor:middle"
       id="g88">
      <text
         id="text90"> 6000</text>
    </g>
    <path
       d="M479.1,403.2 L479.1,391.2 M479.1,22.5 L479.1,34.5 "
       id="path92" />
    <g
       transform="translate(479.1,433.2)"
       style="stroke:none; fill:black; font-family:Arial; font-size:16.00pt; text-anchor:middle"
       id="g94">
      <text
         id="text96"> 8000</text>
    </g>
    <path
       d="M566.3,403.2 L566.3,391.2 M566.3,22.5 L566.3,34.5 "
       id="path98" />
    <g
       transform="translate(566.3,433.2)"
       style="stroke:none; fill:black; font-family:Arial; font-size:16.00pt; text-anchor:middle"
       id="g100">
      <text
         id="text102"> 10000</text>
    </g>
    <path
       d="M130.4,22.5 L130.4,403.2 L566.3,403.2 L566.3,22.5 L130.4,22.5 Z "
       id="path104" />
    <g
       transform="translate(23.6,212.9) rotate(270)"
       style="stroke:none; fill:black; font-family:Arial; font-size:16.00pt; text-anchor:middle"
       id="g106">
      <text
         id="text108">stack size (bytes)</text>
    </g>
    <g
       transform="translate(348.3,469.2)"
       style="stroke:none; fill:black; font-family:Arial; font-size:16.00pt; text-anchor:middle"
       id="g110">
      <text
         id="text112">time (ms)</text>
    </g>
  </g>
  <a
     xlink:title="Plot #1"
     id="a114">
    <g
       style="fill:none; color:white; stroke:currentColor; stroke-width:4.00; stroke-linecap:butt; stroke-linejoin:miter"
       id="g116" />
    <g
       style="fill:none;color:red;stroke:currentColor;stroke-width:4;stroke-linecap:butt;stroke-linejoin:miter;stroke-miterlimit:4;stroke-dasharray:4,4;stroke-dashoffset:0"
       id="g118">
      <g
         transform="translate(475.9,52.5)"
         style="stroke:none;fill:black;font-family:Arial;font-size:16pt;text-anchor:end;stroke-width:4;stroke-miterlimit:4;stroke-dasharray:4,4;stroke-dashoffset:0"
         id="g120">
        <text
           id="text122"
           style="stroke-width:4;stroke-miterlimit:4;stroke-dasharray:4,4;stroke-dashoffset:0">hardware</text>
      </g>
      <path
         stroke="black"
         d="M487.1,46.5 L543.9,46.5 M131.1,403.2 L131.1,345.9 L131.8,294.7 L132.6,299.4 L133.3,288.6 L134.2,288.9    L134.9,265.8 L135.8,258.9 L136.5,261.0 L137.5,262.5 L138.4,261.1 L139.1,255.2 L141.2,255.3 L141.9,253.9    L153.2,254.0 L153.6,249.9 L154.5,249.9 L155.3,291.9 L155.9,281.8 L156.9,288.4 L157.5,283.6 L158.3,283.9    L159.1,277.4 L160.0,274.4 L160.9,283.9 L162.0,270.4 L163.0,277.8 L163.6,274.4 L164.2,277.9 L164.8,277.9    L165.4,274.4 L166.1,277.8 L166.8,274.3 L167.4,273.3 L168.1,273.4 L168.8,277.4 L169.6,277.7 L170.4,273.4    L171.2,283.9 L171.9,274.0 L172.8,274.3 L173.7,277.4 L174.5,283.1 L175.6,322.4 L176.6,308.0 L177.7,320.6    L178.7,301.3 L179.7,293.7 L180.3,294.5 L181.2,285.0 L181.6,286.1 L182.1,291.3 L182.5,293.9 L182.9,294.5    L183.4,304.8 L183.8,286.8 L184.2,300.2 L184.7,304.8 L185.1,300.2 L185.5,328.9 L186.0,306.4 L186.4,317.0    L186.8,286.1 L187.3,291.3 L187.7,282.9 L188.2,289.8 L188.6,303.8 L189.0,293.7 L189.5,297.0 L189.9,301.0    L190.3,315.2 L190.8,306.0 L191.2,308.4 L191.6,307.7 L192.1,306.0 L192.5,307.4 "
         id="path124"
         style="stroke-width:2;stroke-miterlimit:4;stroke-dasharray:2,2;stroke-dashoffset:0" />
    </g>
  </a>
  <a
     xlink:title="Plot #2"
     id="a126">
    <g
       style="fill:none;color:green;stroke:currentColor;stroke-width:2;stroke-linecap:butt;stroke-linejoin:miter;stroke-miterlimit:4;stroke-dasharray:4,2;stroke-dashoffset:0"
       id="g128">
      <g
         transform="translate(475.9,76.5)"
         style="stroke:none;fill:black;font-family:Arial;font-size:16pt;text-anchor:end;stroke-width:2;stroke-miterlimit:4;stroke-dasharray:4,2;stroke-dashoffset:0"
         id="g130">
        <text
           id="text132"
           style="stroke-width:2;stroke-miterlimit:4;stroke-dasharray:4,2;stroke-dashoffset:0">loop</text>
      </g>
      <path
         stroke="black"
         d="M487.1,70.5 L543.9,70.5 M131.1,403.2 L131.1,345.9 L132.4,299.4 L133.3,288.6 L134.4,290.7 L135.2,264.2    L136.0,258.2 L137.4,262.5 L138.3,261.1 L139.0,255.2 L141.2,255.3 L141.9,253.9 L153.2,254.0 L153.6,249.9    L154.5,249.9 L155.6,282.4 L156.9,288.4 L158.2,270.4 L159.0,277.9 L159.8,273.4 L160.7,277.8 L161.7,283.7    L162.8,273.4 L163.9,277.9 L165.1,277.5 L166.4,274.3 L167.1,283.4 L167.8,277.9 L168.5,277.8 L169.2,277.7    L169.9,284.0 L170.7,274.4 L171.5,277.8 L172.3,283.7 L173.2,277.9 L174.0,277.5 L174.9,274.0 L175.8,288.8    L176.6,316.1 L177.5,320.6 L178.4,314.7 L179.3,328.9 L180.1,291.3 L181.1,291.5 L181.9,284.9 L183.1,293.7    L183.9,303.3 L184.8,300.2 L185.7,302.1 L187.0,288.9 L187.4,290.0 L187.9,293.5 L188.3,283.9 L188.7,299.2    L189.2,313.4 L189.6,311.4 L190.0,293.7 L190.5,298.2 L190.9,301.0 L191.3,308.8 L191.8,308.4 L192.2,307.7    L192.7,307.4 L193.1,306.7 "
         id="path134"
         style="stroke-width:2;stroke-miterlimit:4;stroke-dasharray:4,2;stroke-dashoffset:0" />
    </g>
  </a>
  <a
     xlink:title="Plot #3"
     id="a136">
    <g
       style="fill:none; color:blue; stroke:currentColor; stroke-width:4.00; stroke-linecap:butt; stroke-linejoin:miter"
       id="g138">
      <g
         transform="translate(475.9,100.5)"
         style="stroke:none; fill:black; font-family:Arial; font-size:16.00pt; text-anchor:end"
         id="g140">
        <text
           id="text142">recursive</text>
      </g>
      <path
         stroke="black"
         d="M487.1,94.5 L543.9,94.5 M132.4,403.2 L132.4,299.4 L134.3,290.6 L136.5,261.0 L139.1,255.2 L142.0,253.9    L153.2,254.0 L156.2,282.0 L159.0,273.3 L160.9,277.4 L163.1,283.6 L165.4,273.4 L168.0,274.3 L170.9,284.0    L173.1,283.7 L175.3,304.1 L178.4,293.7 L180.8,293.7 L184.0,299.9 L185.5,298.4 L187.1,192.9 L188.7,132.0    L190.2,114.2 L191.8,103.4 L193.8,94.0 L195.5,87.8 L197.3,82.7 L199.0,78.4 L200.8,74.7 L202.5,71.4    L204.2,68.5 L206.0,65.8 L207.7,63.4 L209.5,61.2 L211.2,59.1 L213.0,57.2 L214.7,55.4 L216.3,53.9    L218.0,54.7 L219.8,55.6 L221.5,56.5 L223.2,57.5 L225.0,58.5 L226.7,59.5 L228.5,60.6 L230.2,61.7    L232.0,62.8 L233.7,64.0 L235.5,65.3 L237.2,66.6 L238.8,67.9 L240.3,69.2 L241.9,70.5 L243.5,71.9    L245.0,73.5 L246.6,75.0 L248.2,76.7 L249.7,78.6 L251.3,80.5 L252.9,82.6 L254.5,84.8 L256.0,87.3    L257.6,90.0 L259.2,93.0 L260.7,96.4 L262.3,100.3 L263.9,104.7 L265.4,110.0 L267.0,116.6 L268.6,125.4    L270.1,138.3 L271.7,163.3 L273.3,308.4 L274.9,313.4 L276.4,308.4 "
         id="path144"
         style="stroke-width:4;stroke-miterlimit:4;stroke-dasharray:12,4;stroke-dashoffset:0" />
    </g>
  </a>
  <a
     xlink:title="Plot #4"
     id="a146">
    <g
       style="fill:none;color:cyan;stroke:currentColor;stroke-width:4;stroke-linecap:butt;stroke-linejoin:miter;stroke-miterlimit:4;stroke-dasharray:none;stroke-dashoffset:0"
       id="g148">
      <g
         transform="translate(475.9,124.5)"
         style="stroke:none;fill:black;font-family:Arial;font-size:16pt;text-anchor:end;stroke-width:4;stroke-miterlimit:4;stroke-dasharray:none;stroke-dashoffset:0"
         id="g150">
        <text
           id="text152"
           style="stroke-width:4;stroke-miterlimit:4;stroke-dasharray:none;stroke-dashoffset:0">tail_call</text>
      </g>
      <path
         stroke="black"
         d="M487.1,118.5 L543.9,118.5 M141.9,403.2 L141.9,253.9 L153.6,249.9 L161.8,284.0 L172.3,274.0 L180.7,286.4    L187.0,283.0 L195.2,287.9 L202.2,290.0 L209.2,291.3 L216.1,291.3 L223.1,287.9 L230.1,291.7 L237.1,287.6    L244.0,291.1 L251.0,291.1 L260.6,291.5 L267.6,289.8 L274.6,289.7 L282.4,287.9 L289.4,287.6 L296.3,287.7    L304.2,291.3 L311.2,291.7 L318.1,287.6 L326.0,287.6 L333.0,290.0 L339.9,289.7 L347.8,287.9 L354.8,289.7    L361.7,287.7 L369.6,290.0 L376.6,291.1 L383.5,287.6 L391.4,287.9 L398.3,290.0 L405.3,287.7 L413.2,289.7    L420.1,291.1 L427.1,291.3 L435.0,290.2 L441.9,287.9 L448.9,287.9 L456.8,290.0 L463.7,289.7 L470.7,287.7    L478.6,290.0 L485.5,290.0 L492.5,290.0 L500.3,291.7 L506.6,290.9 L512.9,291.3 L519.2,291.1 L525.5,287.7    L531.7,299.4 "
         id="path154"
         style="stroke-width:4;stroke-miterlimit:4;stroke-dasharray:none;stroke-dashoffset:0" />
    </g>
  </a>
  <g
     style="fill:none; color:white; stroke:black; stroke-width:2.00; stroke-linecap:butt; stroke-linejoin:miter"
     id="g156" />
  <g
     style="fill:none; color:black; stroke:currentColor; stroke-width:2.00; stroke-linecap:butt; stroke-linejoin:miter"
     id="g158">
    <path
       d="M130.4,22.5 L130.4,403.2 L566.3,403.2 L566.3,22.5 L130.4,22.5 Z "
       id="path160" />
  </g>
</svg>
